<mxfile host="app.diagrams.net" modified="2023-04-25T00:11:07.285Z" agent="Mozilla/5.0 (Windows NT 10.0; Win64; x64; rv:109.0) Gecko/20100101 Firefox/112.0" etag="oQeMmHRhDyIFAJY5wTCF" version="21.2.1" type="device">
  <diagram name="Page-1" id="ceM6QkMJ76yWNvOOZF8d">
    <mxGraphModel dx="1434" dy="731" grid="1" gridSize="10" guides="1" tooltips="1" connect="1" arrows="1" fold="1" page="1" pageScale="1" pageWidth="850" pageHeight="1100" math="0" shadow="0">
      <root>
        <mxCell id="0" />
        <mxCell id="1" parent="0" />
        <mxCell id="6OTyTFiMumY5wDdaMYae-13" style="rounded=0;orthogonalLoop=1;jettySize=auto;html=1;" parent="1" source="6OTyTFiMumY5wDdaMYae-1" target="6OTyTFiMumY5wDdaMYae-12" edge="1">
          <mxGeometry relative="1" as="geometry" />
        </mxCell>
        <mxCell id="6OTyTFiMumY5wDdaMYae-1" value="Editor" style="shape=folder;fontStyle=1;spacingTop=10;tabWidth=40;tabHeight=14;tabPosition=left;html=1;whiteSpace=wrap;" parent="1" vertex="1">
          <mxGeometry x="170" y="320" width="70" height="50" as="geometry" />
        </mxCell>
        <mxCell id="6OTyTFiMumY5wDdaMYae-10" style="rounded=0;orthogonalLoop=1;jettySize=auto;html=1;" parent="1" source="6OTyTFiMumY5wDdaMYae-2" target="6OTyTFiMumY5wDdaMYae-4" edge="1">
          <mxGeometry relative="1" as="geometry" />
        </mxCell>
        <mxCell id="6OTyTFiMumY5wDdaMYae-2" value="Plugin" style="shape=folder;fontStyle=1;spacingTop=10;tabWidth=40;tabHeight=14;tabPosition=left;html=1;whiteSpace=wrap;" parent="1" vertex="1">
          <mxGeometry x="570" y="30" width="70" height="50" as="geometry" />
        </mxCell>
        <mxCell id="Yi6OaO5lCAYj67aEvXvF-9" style="edgeStyle=orthogonalEdgeStyle;rounded=0;orthogonalLoop=1;jettySize=auto;html=1;" edge="1" parent="1" source="6OTyTFiMumY5wDdaMYae-3" target="6OTyTFiMumY5wDdaMYae-12">
          <mxGeometry relative="1" as="geometry" />
        </mxCell>
        <mxCell id="6OTyTFiMumY5wDdaMYae-3" value="&lt;div&gt;Efeito&lt;/div&gt;" style="shape=folder;fontStyle=1;spacingTop=10;tabWidth=40;tabHeight=14;tabPosition=left;html=1;whiteSpace=wrap;" parent="1" vertex="1">
          <mxGeometry x="170" y="30" width="70" height="50" as="geometry" />
        </mxCell>
        <mxCell id="6OTyTFiMumY5wDdaMYae-9" style="rounded=0;orthogonalLoop=1;jettySize=auto;html=1;" parent="1" source="6OTyTFiMumY5wDdaMYae-4" target="6OTyTFiMumY5wDdaMYae-3" edge="1">
          <mxGeometry relative="1" as="geometry" />
        </mxCell>
        <mxCell id="6OTyTFiMumY5wDdaMYae-4" value="Cadeia de sinais" style="shape=folder;fontStyle=1;spacingTop=10;tabWidth=40;tabHeight=14;tabPosition=left;html=1;whiteSpace=wrap;" parent="1" vertex="1">
          <mxGeometry x="370" y="30" width="70" height="50" as="geometry" />
        </mxCell>
        <mxCell id="6OTyTFiMumY5wDdaMYae-18" style="edgeStyle=orthogonalEdgeStyle;rounded=0;orthogonalLoop=1;jettySize=auto;html=1;entryX=0.5;entryY=1;entryDx=0;entryDy=0;entryPerimeter=0;" parent="1" source="6OTyTFiMumY5wDdaMYae-12" target="6OTyTFiMumY5wDdaMYae-4" edge="1">
          <mxGeometry relative="1" as="geometry" />
        </mxCell>
        <mxCell id="6OTyTFiMumY5wDdaMYae-12" value="Interface de Efeito" style="shape=folder;fontStyle=1;spacingTop=10;tabWidth=40;tabHeight=14;tabPosition=left;html=1;whiteSpace=wrap;" parent="1" vertex="1">
          <mxGeometry x="170" y="180" width="70" height="50" as="geometry" />
        </mxCell>
        <mxCell id="dGOxmdn3qptVKrP4rosP-2" style="edgeStyle=orthogonalEdgeStyle;rounded=0;orthogonalLoop=1;jettySize=auto;html=1;entryX=0.5;entryY=1;entryDx=0;entryDy=0;entryPerimeter=0;" parent="1" source="dGOxmdn3qptVKrP4rosP-1" target="6OTyTFiMumY5wDdaMYae-2" edge="1">
          <mxGeometry relative="1" as="geometry" />
        </mxCell>
        <mxCell id="dGOxmdn3qptVKrP4rosP-1" value="nih_plug" style="shape=folder;fontStyle=1;spacingTop=10;tabWidth=40;tabHeight=14;tabPosition=left;html=1;whiteSpace=wrap;" parent="1" vertex="1">
          <mxGeometry x="570" y="140" width="70" height="50" as="geometry" />
        </mxCell>
        <mxCell id="dGOxmdn3qptVKrP4rosP-5" style="edgeStyle=orthogonalEdgeStyle;rounded=0;orthogonalLoop=1;jettySize=auto;html=1;" parent="1" source="dGOxmdn3qptVKrP4rosP-4" target="6OTyTFiMumY5wDdaMYae-1" edge="1">
          <mxGeometry relative="1" as="geometry" />
        </mxCell>
        <mxCell id="dGOxmdn3qptVKrP4rosP-4" value="nih_plug_iced" style="shape=folder;fontStyle=1;spacingTop=10;tabWidth=40;tabHeight=14;tabPosition=left;html=1;whiteSpace=wrap;" parent="1" vertex="1">
          <mxGeometry x="340" y="320" width="100" height="50" as="geometry" />
        </mxCell>
        <mxCell id="Yi6OaO5lCAYj67aEvXvF-1" value="&amp;lt;&amp;lt;import&amp;gt;&amp;gt;" style="text;html=1;align=center;verticalAlign=middle;resizable=0;points=[];autosize=1;strokeColor=none;fillColor=none;" vertex="1" parent="1">
          <mxGeometry x="120" y="260" width="90" height="30" as="geometry" />
        </mxCell>
        <mxCell id="Yi6OaO5lCAYj67aEvXvF-2" value="&amp;lt;&amp;lt;import&amp;gt;&amp;gt;" style="text;html=1;align=center;verticalAlign=middle;resizable=0;points=[];autosize=1;strokeColor=none;fillColor=none;" vertex="1" parent="1">
          <mxGeometry x="460" y="20" width="90" height="30" as="geometry" />
        </mxCell>
        <mxCell id="Yi6OaO5lCAYj67aEvXvF-3" value="&amp;lt;&amp;lt;access&amp;gt;&amp;gt;" style="text;html=1;align=center;verticalAlign=middle;resizable=0;points=[];autosize=1;strokeColor=none;fillColor=none;" vertex="1" parent="1">
          <mxGeometry x="120" y="120" width="90" height="30" as="geometry" />
        </mxCell>
        <mxCell id="Yi6OaO5lCAYj67aEvXvF-4" value="&amp;lt;&amp;lt;use&amp;gt;&amp;gt;" style="text;html=1;align=center;verticalAlign=middle;resizable=0;points=[];autosize=1;strokeColor=none;fillColor=none;" vertex="1" parent="1">
          <mxGeometry x="330" y="120" width="70" height="30" as="geometry" />
        </mxCell>
        <mxCell id="Yi6OaO5lCAYj67aEvXvF-5" value="&amp;lt;&amp;lt;import&amp;gt;&amp;gt;" style="text;html=1;align=center;verticalAlign=middle;resizable=0;points=[];autosize=1;strokeColor=none;fillColor=none;" vertex="1" parent="1">
          <mxGeometry x="260" y="20" width="90" height="30" as="geometry" />
        </mxCell>
        <mxCell id="Yi6OaO5lCAYj67aEvXvF-6" value="&amp;lt;&amp;lt;import&amp;gt;&amp;gt;" style="text;html=1;align=center;verticalAlign=middle;resizable=0;points=[];autosize=1;strokeColor=none;fillColor=none;" vertex="1" parent="1">
          <mxGeometry x="250" y="360" width="90" height="30" as="geometry" />
        </mxCell>
        <mxCell id="Yi6OaO5lCAYj67aEvXvF-7" value="&amp;lt;&amp;lt;import&amp;gt;&amp;gt;" style="text;html=1;align=center;verticalAlign=middle;resizable=0;points=[];autosize=1;strokeColor=none;fillColor=none;" vertex="1" parent="1">
          <mxGeometry x="620" y="100" width="90" height="30" as="geometry" />
        </mxCell>
      </root>
    </mxGraphModel>
  </diagram>
</mxfile>
